PathFileType	4	(X/Y/Z)	1103211_Cal01.trc	
DataRate	CameraRate	NumFrames	NumMarkers	Units	OrigDataRate	OrigDataStartFrame	OrigNumFrames
128	128	8	46	mm	128	2	337
Frame#	Time    CLAV			RSHO			LSHO			C7			T10			RASI			LASI			RPSI			LPSI			LGTR			RGTR			LMFC			RMFC			LANK			RANK			LMMA			RMMA			LHEE			RHEE			LMT5			RMT5			LTOE			RTOE			RELB			RWRA			RWRB			RFIN			LELB			LWRB			LWRA			LFIN			RFM2			LFM2			LKNE			RKNE			RTP2			RTP3			RTA3			LTP2			LTP3			LBHD			RFHD			RBHD			LUPA			LFRA			RFRA
        X1	Y1	Z1	X3	Y3	Z3	X4	Y4	Z4	X5	Y5	Z5	X6	Y6	Z6	X8	Y8	Z8	X9	Y9	Z9	X10	Y10	Z10	X11	Y11	Z11	X12	Y12	Z12	X13	Y13	Z13	X16	Y16	Z16	X17	Y17	Z17	X22	Y22	Z22	X23	Y23	Z23	X24	Y24	Z24	X25	Y25	Z25	X26	Y26	Z26	X27	Y27	Z27	X28	Y28	Z28	X29	Y29	Z29	X30	Y30	Z30	X31	Y31	Z31	X32	Y32	Z32	X33	Y33	Z33	X34	Y34	Z34	X35	Y35	Z35	X36	Y36	Z36	X37	Y37	Z37	X38	Y38	Z38	X39	Y39	Z39	X44	Y44	Z44	X53	Y53	Z53	X58	Y58	Z58	X59	Y59	Z59	X61	Y61	Z61	X62	Y62	Z62	X65	Y65	Z65	X67	Y67	Z67	X68	Y68	Z68	X71	Y71	Z71	X72	Y72	Z72	X73	Y73	Z73	X74	Y74	Z74	X75	Y75	Z75	X77	Y77	Z77
1	0.0	190.43114	1375.61743	-47.3755	90.274	1425.20654	89.81198	88.39343	1434.08142	-191.89134	50.70543	1429.76453	-46.16933	15.26026	1135.46484	-51.82399	180.69637	946.87128	61.49251	175.91667	953.29749	-165.80904	0.0	955.9696	0.0	-1.58903	954.99615	-98.05913	109.83151	869.10101	-216.85503	110.12714	858.1745	119.32094	63.69234	466.75729	-83.70839	65.75986	471.7543	-15.45412	57.48076	91.08369	-207.00008	55.89076	87.30277	108.57248	73.38742	98.60156	-121.31395	80.55458	92.85204	24.93553	-14.69056	59.89751	-159.30019	-15.87968	62.95772	60.13402	168.40659	30.82145	-243.65715	165.70081	40.87133	157.6792	212.96107	64.94296	-176.08424	214.54173	65.19581	91.0385	63.29776	1298.56738	348.37964	94.33714	1313.39941	593.31323	60.37851	1248.5448	587.8067	58.07199	1302.30273	668.17004	43.34899	1303.49976	-436.11078	36.93191	1265.5083	-685.43787	69.52655	1326.90979	-679.51099	30.8625	1321.89453	-758.91241	177.21187	717.4588	118.30484	166.58585	718.96075	-217.45012	77.89162	485.39917	-209.07927	88.62894	479.0817	109.19319	55.17357	268.85202	125.70445	54.59035	182.63542	114.52325	108.1584	232.89566	65.01933	65.58308	279.1098	-225.47008	62.32475	194.08243	-216.69118	75.56993	1608.09814	-128.39922	179.8083	1626.22913	39.03773	43.39853	1597.16248	35.54991	64.29205	1395.18005	-292.29352	26.24427	1309.13867	-584.41327	47.21387	1295.49573	432.54413
2	0.00333	190.49174	1375.6355	-47.38228	90.27657	1425.19409	89.78281	88.43269	1434.01587	-191.89674	50.75436	1429.7395	-46.19649	15.29425	1135.44165	-51.81154	180.70872	946.87518	61.49486	175.94249	953.25922	-165.80775	0.01713	955.98657	-0.00972	-1.56691	954.98334	-98.06819	109.86478	869.078	-216.84734	110.13774	858.16022	119.35663	63.82039	466.68781	-83.74074	65.73856	471.74936	-15.44756	57.50949	91.06451	-206.99928	55.90424	87.27937	108.56618	73.45604	98.62467	-121.34697	80.39787	92.81006	24.87135	-14.7058	59.87762	-159.29601	-15.87272	63.01728	60.14108	168.37738	30.78523	-243.65013	165.73132	40.83351	157.67096	212.98781	64.93459	-176.07921	214.54506	65.19665	91.0636	63.30794	1298.57007	348.41455	94.35771	1313.37061	593.31256	60.42296	1248.53882	587.82764	58.14467	1302.31274	668.14386	43.35049	1303.49902	-436.10956	37.03133	1265.46375	-685.44708	69.58644	1326.89453	-679.52448	30.89488	1321.87781	-758.92297	177.20027	717.43591	118.31726	166.5999	718.91492	-217.44527	77.92455	485.36484	-209.07423	88.62582	479.06439	109.17862	55.17473	268.86856	125.69753	54.58864	182.62973	114.48459	108.1545	232.89171	65.02226	65.5591	279.08011	-225.4734	62.30086	194.05051	-216.71663	75.64709	1608.11902	-128.42006	179.80861	1626.22839	39.03754	43.4233	1597.10791	35.51183	64.32303	1395.13831	-292.30823	26.24426	1309.12781	-584.41791	47.21529	1295.4978	432.53876
3	0.00667	190.50407	1375.61108	-47.38542	90.28052	1425.19446	89.79614	88.43842	1434.00427	-191.89403	50.75693	1429.73108	-46.20302	15.27238	1135.42932	-51.82777	180.73729	946.85107	61.52045	175.98055	953.23187	-165.78801	0.05074	956.01489	0.00885	-1.53056	954.97729	-98.05342	109.89355	869.05524	-216.82707	110.1924	858.15851	119.33942	63.77045	466.74448	-83.72728	65.7796	471.72046	-15.42461	57.51825	91.05336	-206.99989	55.90517	87.27763	108.56453	73.44084	98.56743	-121.32259	80.61076	92.81212	24.9325	-14.68304	59.88849	-159.35066	-16.00907	63.27046	60.30476	168.36656	30.77836	-243.65993	165.744	40.83097	157.65765	212.99544	64.91267	-176.11934	214.56593	65.18691	91.04958	63.33424	1298.547	348.36786	94.39056	1313.38684	593.30542	60.41583	1248.52881	587.797	58.15263	1302.32898	668.11627	43.384	1303.49414	-436.13513	37.04744	1265.44897	-685.44556	69.61317	1326.84998	-679.52515	30.95916	1321.85107	-758.91223	177.2238	717.43469	118.28688	166.60513	718.88776	-217.44344	77.89818	485.34772	-209.07921	88.6394	479.07224	109.1579	55.17528	268.86896	125.69608	54.58643	182.63033	114.48892	108.13428	232.87022	65.00468	65.5681	279.06641	-225.46941	62.3293	194.03674	-216.66728	75.66975	1608.11865	-128.40987	179.77483	1626.17773	39.07378	43.45409	1597.07886	35.4942	64.18845	1395.02649	-292.43188	26.29644	1309.11121	-584.4505	47.2028	1295.51184	432.50967
4	0.01	190.50331	1375.61096	-47.3853	90.28294	1425.17676	89.79747	88.41862	1433.97253	-191.90532	50.74406	1429.75574	-46.23143	15.27803	1135.44226	-51.83311	180.74245	946.8399	61.51321	176.02675	953.20319	-165.79124	0.06675	956.0047	-0.0302	-1.4962	955.01288	-98.08946	109.91582	869.07196	-216.81129	110.19318	858.17346	119.31677	63.6973	466.74377	-83.68449	65.77481	471.68228	-15.44078	57.52469	91.06348	-207.00426	55.91521	87.29147	108.52478	73.49829	98.58737	-121.35323	80.6474	92.80917	24.91316	-14.7005	59.90186	-159.34953	-16.01731	63.25002	60.34216	168.58186	30.8893	-243.56425	165.76979	40.83579	157.65237	212.97069	64.91615	-176.10686	214.58122	65.15832	91.03371	63.35124	1298.53613	348.3905	94.41481	1313.38538	593.30084	60.46445	1248.53601	587.81171	58.19257	1302.33606	668.11005	43.42216	1303.47375	-436.12396	37.04636	1265.43225	-685.4502	69.64104	1326.80908	-679.52216	30.96852	1321.80896	-758.91925	177.24342	717.41919	118.28497	166.63309	718.86859	-217.43129	77.92638	485.34073	-209.05113	88.64285	479.04538	109.15666	55.18771	268.88391	125.69708	54.59756	182.64236	114.49686	108.17509	232.86203	64.96185	65.58218	279.03174	-225.46846	62.33104	194.03799	-216.70189	75.82094	1608.24292	-128.08986	179.76399	1626.17419	39.07637	43.46257	1597.07727	35.49075	64.31172	1395.09229	-292.31256	26.33781	1309.08923	-584.46344	47.21635	1295.52588	432.52441
5	0.01333	190.49464	1375.59082	-47.36089	90.26382	1425.18848	89.7476	88.41637	1433.97742	-191.8846	50.73813	1429.75916	-46.21965	15.31467	1135.40723	-51.82265	180.78975	946.8465	61.53088	176.02879	953.10822	-165.78172	0.10257	956.0105	0.0211	-1.47924	955.00079	-98.04308	109.94972	869.04883	-216.82176	110.1929	858.17133	119.31512	63.73178	466.78293	-83.68343	65.75195	471.73337	-15.40834	57.53242	91.04587	-207.00969	55.90817	87.30032	108.55344	73.47403	98.62383	-121.35213	80.66324	92.80381	24.91695	-14.68919	59.88997	-159.33977	-15.91294	62.96978	60.13824	168.45088	30.75927	-243.66655	165.76697	40.83366	157.65308	212.98244	64.89295	-176.08128	214.58263	65.15265	91.0311	63.36501	1298.54614	348.43317	94.43202	1313.39587	593.31873	60.47765	1248.53223	587.80438	58.19691	1302.34436	668.11157	43.43058	1303.43848	-436.13	37.10166	1265.41479	-685.44922	69.65999	1326.79443	-679.54163	30.98303	1321.79749	-758.91565	177.23927	717.42926	118.27777	166.6057	718.84863	-217.43962	77.93497	485.34363	-209.07234	88.62573	479.06125	109.17924	55.18892	268.90472	125.71354	54.59962	182.65031	114.49446	108.17865	232.88741	65.00255	65.58159	279.02426	-225.4691	62.33759	194.007	-216.70515	75.85783	1608.07104	-128.24077	179.87135	1626.16382	39.06291	43.45222	1597.09863	35.50378	64.35156	1395.05591	-292.3009	26.34449	1309.07312	-584.43164	47.26067	1295.53015	432.52231
6	0.01667	190.50471	1375.58191	-47.39378	90.25459	1425.16968	89.75476	88.40714	1433.95007	-191.88557	50.74992	1429.73462	-46.18852	15.34064	1135.3905	-51.7899	180.77785	946.85254	61.56796	176.0652	953.16357	-165.748	0.1032	956.01465	0.02107	-1.45739	955.01294	-98.04634	109.93541	869.05518	-216.82399	110.24684	858.20874	119.33395	63.74394	466.81519	-83.71587	65.76677	471.70657	-15.43633	57.52129	91.02965	-207.01723	55.9196	87.34513	108.53886	73.47212	98.64118	-121.35194	80.65829	92.81027	24.90361	-14.71387	59.88018	-159.35158	-15.87922	62.96251	60.11627	168.42	30.747	-243.65404	165.76083	40.8493	157.65097	212.9666	64.87212	-176.1162	214.57741	65.16479	91.03885	63.40704	1298.51416	348.40616	94.45775	1313.42334	593.32538	60.48755	1248.56921	587.79529	58.22855	1302.34106	668.11188	43.43	1303.43738	-436.1308	37.14072	1265.37573	-685.41302	69.68504	1326.76306	-679.5047	30.99581	1321.77039	-758.90991	177.23817	717.4057	118.28697	166.62006	718.8501	-217.43416	77.92545	485.34335	-209.04732	88.63177	479.0769	109.17578	55.19618	268.8811	125.70027	54.58748	182.66223	114.50266	108.17661	232.87354	65.00012	65.55836	279.0311	-225.47395	62.32568	194.00273	-216.7018	75.86734	1608.06274	-128.26128	179.86595	1626.16211	39.03746	43.45367	1597.14905	35.49774	64.37102	1395.03992	-292.30121	26.39639	1309.02051	-584.41602	47.26051	1295.54846	432.5058
7	0.02	190.49699	1375.56775	-47.38661	90.21288	1425.17993	89.76262	88.41592	1433.97778	-191.9055	50.75163	1429.72754	-46.19814	15.32817	1135.37207	-51.82381	180.7679	946.87103	61.56609	176.04506	953.164	-165.7466	0.09	956.01599	0.02626	-1.47501	955.01056	-98.03816	109.89594	869.04095	-216.80333	110.26506	858.17828	119.32269	63.74303	466.81619	-83.71877	65.72212	471.72183	-15.4001	57.47426	91.02431	-206.98726	55.91898	87.32596	108.54826	73.47441	98.64088	-121.35216	80.56709	92.82007	24.93262	-14.70301	59.88116	-159.33659	-16.01148	63.22493	60.33511	168.45787	30.76488	-243.66179	165.756	40.84333	157.64621	212.94029	64.87497	-176.11568	214.56841	65.17017	91.03735	63.41615	1298.49854	348.40076	94.45923	1313.42383	593.32513	60.52797	1248.56311	587.81586	58.2363	1302.33289	668.10138	43.43664	1303.39795	-436.13947	37.16159	1265.37012	-685.44202	69.71202	1326.75122	-679.5174	30.99271	1321.72009	-758.91486	177.23463	717.42755	118.31293	166.6226	718.84387	-217.43462	77.854	485.33942	-209.05574	88.61955	479.06757	109.19392	55.18542	268.88187	125.71635	54.59917	182.65041	114.47461	108.16508	232.8736	65.01131	65.47342	279.01828	-225.44731	62.29648	193.99483	-216.72914	75.86761	1608.07507	-128.25514	179.87227	1626.2124	39.04538	43.45189	1597.17529	35.50117	64.35492	1395.02905	-292.3067	26.39458	1308.99475	-584.42694	47.27599	1295.52832	432.53934
8	0.02333	190.49211	1375.58167	-47.38307	90.22073	1425.17603	89.76881	88.41161	1433.95825	-191.91426	50.73888	1429.71606	-46.19533	15.29824	1135.36426	-51.77003	180.78828	946.87543	61.59082	176.03172	953.18054	-165.72441	0.09981	955.98981	0.07745	-1.47866	954.98962	-97.9897	109.8996	869.05078	-216.79628	110.24979	858.2088	119.38306	63.6962	466.82034	-83.70393	65.66989	471.73386	-15.42058	57.44168	91.01643	-207.02885	55.90164	87.29415	108.54245	73.42644	98.66057	-121.34492	80.54556	92.83225	24.93178	-14.69424	59.85272	-159.33061	-15.99599	63.24672	60.40302	168.39354	30.75825	-243.65349	165.71365	40.86201	157.6725	212.93639	64.90369	-176.11354	214.55421	65.16819	91.05321	63.41444	1298.4989	348.40149	94.32039	1313.4364	593.3269	60.53677	1248.56165	587.85559	58.28653	1302.34204	668.11719	43.43057	1303.375	-436.10919	37.20309	1265.32031	-685.40417	69.74405	1326.73901	-679.52692	31.01565	1321.7218	-758.93591	177.22868	717.41565	118.30426	166.54688	718.86328	-217.44484	77.82181	485.34872	-209.06133	88.56841	479.08578	109.2052	55.16075	268.8826	125.72936	54.58826	182.64742	114.51057	108.11517	232.8848	64.98941	65.43927	279.02542	-225.44728	62.26416	194.00455	-216.73006	75.86469	1608.05505	-128.25975	179.8755	1626.2157	39.04678	43.45315	1597.15344	35.4964	64.24966	1394.95178	-292.41772	26.40423	1308.9563	-584.40546	47.2654	1295.51843	432.54504
